<svg width="32" height="32" viewBox="0 0 32 32" fill="none" xmlns="http://www.w3.org/2000/svg">
<circle cx="16" cy="16" r="16" fill="#45E14F"/>
<path d="M9.43739 15.2517C8.89842 15.2517 8.44387 15.0657 8.07373 14.6935C7.70359 14.3214 7.51852 13.8658 7.51852 13.3268C7.51852 12.7879 7.7046 12.3333 8.07674 11.9632C8.44889 11.5931 8.90445 11.408 9.44341 11.408C9.98238 11.408 10.4369 11.5941 10.8071 11.9662C11.1772 12.3384 11.3623 12.7939 11.3623 13.3329C11.3623 13.8718 11.1762 14.3264 10.8041 14.6965C10.4319 15.0667 9.97635 15.2517 9.43739 15.2517ZM13.3879 11.6215C12.8489 11.6215 12.3944 11.4355 12.0243 11.0633C11.6541 10.6912 11.469 10.2356 11.469 9.69664C11.469 9.15768 11.6551 8.70312 12.0273 8.33299C12.3994 7.96285 12.855 7.77778 13.3939 7.77778C13.9329 7.77778 14.3874 7.96385 14.7576 8.336C15.1277 8.70814 15.3128 9.1637 15.3128 9.70266C15.3128 10.2416 15.1267 10.6962 14.7546 11.0663C14.3824 11.4365 13.9269 11.6215 13.3879 11.6215ZM18.7265 11.6215C18.1875 11.6215 17.7329 11.4355 17.3628 11.0633C16.9927 10.6912 16.8076 10.2356 16.8076 9.69664C16.8076 9.15768 16.9937 8.70312 17.3658 8.33299C17.738 7.96285 18.1935 7.77778 18.7325 7.77778C19.2714 7.77778 19.726 7.96385 20.0961 8.336C20.4663 8.70814 20.6513 9.1637 20.6513 9.70266C20.6513 10.2416 20.4653 10.6962 20.0931 11.0663C19.721 11.4365 19.2654 11.6215 18.7265 11.6215ZM22.677 15.2517C22.138 15.2517 21.6835 15.0657 21.3133 14.6935C20.9432 14.3214 20.7581 13.8658 20.7581 13.3268C20.7581 12.7879 20.9442 12.3333 21.3163 11.9632C21.6885 11.5931 22.144 11.408 22.683 11.408C23.222 11.408 23.6765 11.5941 24.0467 11.9662C24.4168 12.3384 24.6019 12.7939 24.6019 13.3329C24.6019 13.8718 24.4158 14.3264 24.0436 14.6965C23.6715 15.0667 23.2159 15.2517 22.677 15.2517ZM11.4904 24.0069C10.8925 24.0069 10.4013 23.7825 10.017 23.3337C9.63259 22.8849 9.4404 22.3548 9.4404 21.7434C9.4404 21.1455 9.62191 20.6152 9.98493 20.1525C10.348 19.6898 10.7359 19.245 11.1487 18.8179C11.4619 18.5047 11.7538 18.1737 12.0243 17.8249C12.2947 17.4761 12.551 17.1167 12.793 16.7465C13.2059 16.1201 13.6685 15.5365 14.181 14.9955C14.6935 14.4545 15.3199 14.184 16.0602 14.184C16.8005 14.184 17.4304 14.4545 17.95 14.9955C18.4697 15.5365 18.9359 16.1273 19.3487 16.7679C19.5907 17.138 19.8434 17.4939 20.1068 17.8356C20.3702 18.1773 20.6585 18.5047 20.9717 18.8179C21.3845 19.245 21.7724 19.6898 22.1355 20.1525C22.4985 20.6152 22.68 21.1455 22.68 21.7434C22.68 22.3548 22.4878 22.8849 22.1034 23.3337C21.719 23.7825 21.2279 24.0069 20.63 24.0069C19.8612 24.0069 19.0996 23.9429 18.3451 23.8148C17.5906 23.6866 16.8289 23.6226 16.0602 23.6226C15.2914 23.6226 14.5298 23.6866 13.7753 23.8148C13.0208 23.9429 12.2592 24.0069 11.4904 24.0069Z" fill="black"/>
</svg>
